<svg xmlns="http://www.w3.org/2000/svg"
  xmlns:xlink="http://www.w3.org/1999/xlink" width="157.282" height="144.791" viewBox="40 44 104 139">
  <defs>
    <filter id="Path_88" x="67.271" y="94.055" width="37.794" height="47.47" filterUnits="userSpaceOnUse">
      <feOffset input="SourceAlpha"/>
      <feGaussianBlur stdDeviation="1.5" result="blur"/>
      <feFlood flood-opacity="0.161"/>
      <feComposite operator="in" in2="blur"/>
      <feComposite in="SourceGraphic"/>
    </filter>
    <clipPath id="clip-path">
      <path id="Path_87" data-name="Path 87" d="M27.682,107.354c3.863.257,32.71-18.278,40.657-41.1S65.327,19.733,71.057,7.577s-21.25-6.035-21.25-6.035S17.957,10.534,9.661,31.616-5.551,90.442,6.452,100.878,27.682,107.354,27.682,107.354Z" transform="translate(76.432 0) rotate(45)" fill="#d46fff" opacity="0.63"/>
    </clipPath>
    <clipPath id="clip-path-2">
      <path id="Path_86" data-name="Path 86" d="M26.65,98.826c3.719.227,31.482-16.89,39.127-37.9S62.869,18.144,68.383,6.949s-20.455-5.5-20.455-5.5S17.272,9.8,9.29,29.207-5.341,83.35,6.215,92.92,26.65,98.826,26.65,98.826Z" transform="translate(57.08 0) rotate(35)" fill="#bc67ff"/>
    </clipPath>
    <clipPath id="clip-path-3">
      <path id="Path_85" data-name="Path 85" d="M42.114,0,0,42.518,24.729,65.777S30.89,67.656,34.9,59.325s.119-11.813.911-22.139S42.114,0,42.114,0Z" transform="matrix(0.934, 0.358, -0.358, 0.934, 23.637, 0)" fill="#341670"/>
    </clipPath>
    <filter id="Union_6" x="62.352" y="53.855" width="54.828" height="60.821" filterUnits="userSpaceOnUse">
      <feOffset dy="3" input="SourceAlpha"/>
      <feGaussianBlur stdDeviation="3" result="blur-2"/>
      <feFlood flood-opacity="0.161"/>
      <feComposite operator="in" in2="blur-2"/>
      <feComposite in="SourceGraphic"/>
    </filter>
  </defs>
  <g id="zestify_logo" data-name="zestify logo">
    <g id="Group_885" data-name="Group 885" transform="">
      <g transform="matrix(1, 0, 0, 1, 0, 0)" filter="url(#Path_88)">
        <path id="Path_88-2" data-name="Path 88" d="M3.274,8.6,0,19.079l9.892.287L1.729,35,23.068,16.009l-8.7-4.025L21.31,0Z" transform="matrix(0.98, 0.17, -0.17, 0.98, 77.85, 98.55)" fill="#341670"/>
      </g>
      <path id="Path_81" data-name="Path 81" d="M12.132,56.566S1.419,53.273.1,41.42s11.24-26.383,11.24-26.383S23.514,5.259,28.256,3.871,46.078-1.223,59.582.406,83.36,3.392,88.8,9.277s8.1,13.615,7.061,16.936-2.69,4.709-5.347,6.792S74.923,37.059,74.67,37.29A7.223,7.223,0,0,1,73.362,41a8.851,8.851,0,0,1-3.528,2.276A5.57,5.57,0,0,1,68.39,47.27c-1.585,1.444-4.894,1.785-4.894,1.785A7.5,7.5,0,0,1,59.2,52.64c-3.019.918-7.783.087-7.783.087l-15.791,10.1S29.3,67.922,21.681,65.725A14.258,14.258,0,0,1,12.132,56.566Z" transform="translate(50.144 45.818) rotate(7)" fill="#ffb1f7"/>
      <g id="Mask_Group_7" data-name="Mask Group 7" transform="translate(19.235 1.278) rotate(7)" opacity="0.53" clip-path="url(#clip-path)">
        <path id="Path_82" data-name="Path 82" d="M12.132,56.566S1.419,53.273.1,41.42s11.24-26.383,11.24-26.383S23.514,5.259,28.256,3.871,46.078-1.223,59.582.406,83.36,3.392,88.8,9.277s8.1,13.615,7.061,16.936-2.69,4.709-5.347,6.792S74.923,37.059,74.67,37.29A7.223,7.223,0,0,1,73.362,41a8.851,8.851,0,0,1-3.528,2.276A5.57,5.57,0,0,1,68.39,47.27c-1.585,1.444-4.894,1.785-4.894,1.785A7.5,7.5,0,0,1,59.2,52.64c-3.019.918-7.783.087-7.783.087l-15.791,10.1S29.3,67.922,21.681,65.725A14.258,14.258,0,0,1,12.132,56.566Z" transform="translate(36.107 40.441)" fill="#d46fff"/>
      </g>
      <g id="Mask_Group_6" data-name="Mask Group 6" transform="translate(14.768 0) rotate(7)" opacity="0.6" clip-path="url(#clip-path-2)">
        <path id="Path_83" data-name="Path 83" d="M12.132,56.566S1.419,53.273.1,41.42s11.24-26.383,11.24-26.383S23.514,5.259,28.256,3.871,46.078-1.223,59.582.406,83.36,3.392,88.8,9.277s8.1,13.615,7.061,16.936-2.69,4.709-5.347,6.792S74.923,37.059,74.67,37.29A7.223,7.223,0,0,1,73.362,41a8.851,8.851,0,0,1-3.528,2.276A5.57,5.57,0,0,1,68.39,47.27c-1.585,1.444-4.894,1.785-4.894,1.785A7.5,7.5,0,0,1,59.2,52.64c-3.019.918-7.783.087-7.783.087l-15.791,10.1S29.3,67.922,21.681,65.725A14.258,14.258,0,0,1,12.132,56.566Z" transform="translate(40.696 41.165)" fill="#bc67ff"/>
      </g>
      <g id="Mask_Group_5" data-name="Mask Group 5" transform="translate(30.533 22.03) rotate(7)" opacity="0.72" clip-path="url(#clip-path-3)">
        <path id="Path_84" data-name="Path 84" d="M12.132,56.566S1.419,53.273.1,41.42s11.24-26.383,11.24-26.383S23.514,5.259,28.256,3.871,46.078-1.223,59.582.406,83.36,3.392,88.8,9.277s8.1,13.615,7.061,16.936-2.69,4.709-5.347,6.792S74.923,37.059,74.67,37.29A7.223,7.223,0,0,1,73.362,41a8.851,8.851,0,0,1-3.528,2.276A5.57,5.57,0,0,1,68.39,47.27c-1.585,1.444-4.894,1.785-4.894,1.785A7.5,7.5,0,0,1,59.2,52.64c-3.019.918-7.783.087-7.783.087l-15.791,10.1S29.3,67.922,21.681,65.725A14.258,14.258,0,0,1,12.132,56.566Z" transform="translate(22.364 21.221)" fill="#ad26ff"/>
      </g>
      <g id="Group_899" data-name="Group 899" transform="translate(66.83 57.206)">
        <g transform="matrix(1, 0, 0, 1, -66.83, -57.21)" filter="url(#Union_6)">
          <path id="Union_6-2" data-name="Union 6" d="M4.949,35.885a5.683,5.683,0,0,1-.751-.228c-1.633-.619-2.716-1.862-2.642-2.933L.187,32.205a.267.267,0,0,1-.172-.336.268.268,0,0,1,.352-.137l9.306,3.53a.254.254,0,1,1-.18.473l-1.369-.519a2.651,2.651,0,0,1-2.215.8A5.057,5.057,0,0,1,4.949,35.885Zm5.194-1.937a.311.311,0,0,1-.041-.013L.8,30.406a.267.267,0,0,1-.172-.336.268.268,0,0,1,.352-.137l9.306,3.53a.268.268,0,0,1,.172.336.256.256,0,0,1-.253.157A.3.3,0,0,1,10.144,33.948Zm.609-1.8a.308.308,0,0,1-.041-.012l-9.306-3.53a.254.254,0,1,1,.18-.473l9.306,3.53a.268.268,0,0,1,.172.336.256.256,0,0,1-.253.157A.3.3,0,0,1,10.753,32.15Zm-.215-2.3L3.591,27.211a2.338,2.338,0,0,1-1.541-1.93L.932,12.329a10.537,10.537,0,0,1-.156-1.813l-.038-.442.048.017h0A10.569,10.569,0,0,1,9.311.318,13.437,13.437,0,0,1,22.688,5.084a10.635,10.635,0,0,1,.505,12.991l.035.012-.308.341a10.4,10.4,0,0,1-.775.858L13.083,29.315a2.215,2.215,0,0,1-1.726.7A2.541,2.541,0,0,1,10.539,29.847Z" transform="translate(71.35 69.28) rotate(-22)" fill="#fff"/>
        </g>
        <g id="Group_898" data-name="Group 898" transform="translate(0 0)">
          <path id="Path_116" data-name="Path 116" d="M0,2.512,4.358,0" transform="matrix(0.966, 0.259, -0.259, 0.966, 36.417, 11.638)" fill="none" stroke="#fff" stroke-linecap="round" stroke-width="2"/>
          <path id="Path_116-2" data-name="Path 116" d="M0,2.523,3.891,0" transform="matrix(0.259, -0.966, 0.966, 0.259, 13.389, 3.782)" fill="none" stroke="#fff" stroke-linecap="round" stroke-width="2"/>
          <path id="Path_116-3" data-name="Path 116" d="M0,2.312,4.236,0" transform="matrix(0.966, -0.259, 0.259, 0.966, 30.816, 5.745)" fill="none" stroke="#fff" stroke-linecap="round" stroke-width="2"/>
          <path id="Path_116-4" data-name="Path 116" d="M0,2.722,4.013,0" transform="matrix(-0.259, -0.966, 0.966, -0.259, 6.029, 8.603)" fill="none" stroke="#fff" stroke-linecap="round" stroke-width="2"/>
          <path id="Path_115" data-name="Path 115" d="M0,2.717,4.246,0" transform="translate(1.921 10.931) rotate(45)" fill="none" stroke="#fff" stroke-linecap="round" stroke-width="2"/>
          <path id="Path_116-5" data-name="Path 116" d="M0,2.318,4,0" transform="translate(22.64 2.83) rotate(-45)" fill="none" stroke="#fff" stroke-linecap="round" stroke-width="2"/>
        </g>
      </g>
    </g>
    <g id="Group_904" data-name="Group 904" transform="translate(19.355 130.59)">
      <g id="Group_901" data-name="Group 901" transform="translate(0)">
        <g id="Group_906" data-name="Group 906">
          <path id="Path_117" data-name="Path 117" d="M20.236-123.735l-8.1,16.88h8.007v6.8H.459l8.064-16.88H0v-6.8Zm18.877,9.212v5.274H34.05a2.832,2.832,0,0,0-1.462.278,1.029,1.029,0,0,0-.43.937,1.007,1.007,0,0,0,.44.98,4.45,4.45,0,0,0,1.8.234H39.61v6.766h-6.1q-4.3,0-6.573-1.865a6.566,6.566,0,0,1-2.274-5.387v-9.281a6.623,6.623,0,0,1,2.15-5.274,8.913,8.913,0,0,1,6.048-1.874H39.61v6.8H34.661q-2.006,0-2.006,1.18a1.009,1.009,0,0,0,.478.963,3.775,3.775,0,0,0,1.7.269Zm19.546-9.316v6.748a4.773,4.773,0,0,0-1.3-.26,2.133,2.133,0,0,0-1.51.59,1.878,1.878,0,0,0-.631,1.423,3.655,3.655,0,0,0,.688,1.8l.592.937a9.158,9.158,0,0,1,1.605,4.892,7.519,7.519,0,0,1-2.7,5.846,9.606,9.606,0,0,1-6.6,2.394,9.392,9.392,0,0,1-3.707-.781V-107.1a4.042,4.042,0,0,0,1.968.642,2.666,2.666,0,0,0,1.691-.529,1.619,1.619,0,0,0,.678-1.327,6.432,6.432,0,0,0-1.089-2.273,10.385,10.385,0,0,1-1.739-5.551,7.581,7.581,0,0,1,2.627-5.768,8.946,8.946,0,0,1,6.277-2.42A10.471,10.471,0,0,1,58.659-123.839Zm17.635,6.9v16.88H68.536v-16.88H62.594v-6.8H82.218v6.8Zm18.9-6.8v23.68H87.433v-23.68Zm20.378,11.155v6.349h-5.59v6.176h-7.758v-14.694a9.122,9.122,0,0,1,2.819-6.861,9.821,9.821,0,0,1,7.1-2.715,9.985,9.985,0,0,1,7.892,3.7l-6.363,4.216a1.91,1.91,0,0,0-1.892-1.353q-1.8,0-1.8,2.255v2.932Zm26.759-11.155-7.376,10.53v13.15h-7.758v-13.15l-7.433-10.53h7.873L131-118.861l3.612-4.875Z" transform="translate(0 133.734)" fill="#341670"/>
          <g id="Group_905" data-name="Group 905" transform="translate(86.888)">
            <path id="Path_42" data-name="Path 42" d="M855.514,568.17c-.049.084-.1.165-.156.243a4.426,4.426,0,0,1-4.335,1.746,4.088,4.088,0,0,1-3.414-2.989,3.7,3.7,0,0,1,1.765-4,4.016,4.016,0,0,1,.511-.27,4.577,4.577,0,0,1,4.8.662,3.605,3.605,0,0,1,.975,4.319A3.2,3.2,0,0,1,855.514,568.17Z" transform="translate(-847.515 -562.507)" fill="#cd76fd"/>
            <g id="Group_902" data-name="Group 902" transform="translate(0.012 0.398)">
              <path id="Path_68" data-name="Path 68" d="M869.972,584.368c-.049.084-.1.165-.156.243l-5.258-3.319,5.562,2.792C870.076,584.18,870.026,584.274,869.972,584.368Z" transform="translate(-861.985 -579.103)" fill="#fff"/>
              <path id="Path_69" data-name="Path 69" d="M853.24,595.082l-5.528-1.935a3.536,3.536,0,0,1-.116-.672Z" transform="translate(-847.597 -588.746)" fill="#fff"/>
              <path id="Path_70" data-name="Path 70" d="M864.3,567.25l-4.527-1.585a4.014,4.014,0,0,1,.511-.27Z" transform="translate(-857.927 -565.395)" fill="#fff"/>
            </g>
          </g>
        </g>
      </g>
    </g>
  </g>
</svg>