<svg width="506" height="253" viewBox="0 0 506 253" fill="none" xmlns="http://www.w3.org/2000/svg">
<path d="M278.664 0.384766C278.897 0.511432 279.201 0.551435 279.574 0.504768C279.914 0.464768 280.121 0.61143 280.194 0.944763C280.241 1.15143 280.211 1.35476 280.104 1.55476C279.991 1.77476 279.941 2.01143 279.954 2.26476C280.454 10.4914 280.594 19.7481 280.374 30.0348C280.274 34.6248 280.764 40.0048 280.534 45.0648C280.521 45.3981 280.601 45.7081 280.774 45.9948C281.614 47.3148 282.114 48.3748 283.404 49.3448C285.411 50.8581 287.434 52.0981 289.474 53.0648C307.094 61.3981 324.564 61.6881 341.884 53.9348C345.057 52.5148 347.951 50.7548 350.564 48.6548C351.977 47.5148 352.687 46.2348 352.694 44.8148C352.754 31.3481 352.854 17.8414 352.994 4.29477C353.001 3.70144 352.917 3.06477 352.744 2.38477C352.584 1.75143 352.451 1.11143 352.344 0.464767L375.924 0.604767C376.424 0.7981 376.611 1.0281 376.484 1.29477C376.244 1.80144 376.057 2.33143 375.924 2.88477C375.024 17.2048 369.824 29.7381 360.324 40.4848C358.331 42.7381 356.117 44.6914 353.684 46.3448C353.45 46.5018 353.259 46.7134 353.126 46.961C352.994 47.2086 352.924 47.4846 352.924 47.7648L352.944 118.605C352.944 118.681 352.929 118.756 352.901 118.827C352.872 118.897 352.83 118.961 352.777 119.015C352.724 119.069 352.661 119.111 352.592 119.141C352.523 119.17 352.449 119.185 352.374 119.185L281.234 119.205C281.014 119.205 280.803 119.117 280.647 118.962C280.491 118.806 280.404 118.595 280.404 118.375C280.384 93.3681 280.391 70.1348 280.424 48.6748C280.424 47.5048 280.034 46.9648 279.194 46.2248C265.107 34.0848 257.881 19.1148 257.514 1.31477C257.511 1.2041 257.531 1.09401 257.571 0.99099C257.612 0.88797 257.672 0.794101 257.75 0.714897C257.827 0.635694 257.92 0.572757 258.022 0.5298C258.124 0.486844 258.233 0.464735 258.344 0.464767L278.664 0.384766Z" fill="#EF4040"/>
<path d="M279.065 10L352.418 10.0676C352.524 10.6142 352.657 11.1552 352.816 11.6905C352.988 12.2652 353.071 12.8034 353.065 13.3049C352.925 24.7549 352.826 36.1712 352.766 47.5537C352.76 48.7539 352.053 49.8358 350.646 50.7994C348.044 52.5743 345.163 54.062 342.004 55.2622C324.761 61.8155 307.369 61.5704 289.827 54.5268C287.796 53.7098 285.782 52.6617 283.784 51.3826C282.5 50.5627 282.002 49.6667 281.166 48.551C280.993 48.3087 280.914 48.0467 280.927 47.765C281.156 43.4881 280.668 38.9408 280.768 35.0611C280.987 26.3665 280.847 18.5425 280.349 11.589C280.336 11.3749 280.386 11.1749 280.499 10.9889C280.605 10.8199 280.635 10.648 280.588 10.4733C280.515 10.1916 280.31 10.0676 279.971 10.1014C279.599 10.1409 279.297 10.1071 279.065 10Z" fill="#E6B1B1"/>
<path d="M247.514 59.8145C247.514 75.5948 241.245 90.7289 230.087 101.887C218.928 113.046 203.794 119.314 188.014 119.314C172.233 119.314 157.099 113.046 145.941 101.887C134.782 90.7289 128.514 75.5948 128.514 59.8145C128.514 44.0341 134.782 28.9 145.941 17.7416C157.099 6.58318 172.233 0.314453 188.014 0.314453C203.794 0.314453 218.928 6.58318 230.087 17.7416C241.245 28.9 247.514 44.0341 247.514 59.8145ZM211.784 59.8445C211.784 53.5429 209.28 47.4995 204.825 43.0436C200.369 38.5877 194.325 36.0845 188.024 36.0845C181.722 36.0845 175.679 38.5877 171.223 43.0436C166.767 47.4995 164.264 53.5429 164.264 59.8445C164.264 66.146 166.767 72.1894 171.223 76.6453C175.679 81.1012 181.722 83.6044 188.024 83.6044C194.325 83.6044 200.369 81.1012 204.825 76.6453C209.28 72.1894 211.784 66.146 211.784 59.8445Z" fill="#C21292"/>
<path d="M188.024 83.604C201.146 83.604 211.784 72.9663 211.784 59.844C211.784 46.7217 201.146 36.084 188.024 36.084C174.901 36.084 164.264 46.7217 164.264 59.844C164.264 72.9663 174.901 83.604 188.024 83.604Z" fill="#EAB7DC"/>
<path d="M118.381 52.6989L53.4111 52.7489C53.1963 52.7489 52.9902 52.8353 52.8383 52.9891C52.6864 53.1429 52.6011 53.3514 52.6011 53.5689L52.5811 118.839C50.4411 118.746 48.1677 118.396 45.7611 117.789C35.8411 115.309 26.2711 110.469 18.9911 103.489C4.81775 89.9222 -1.42226 73.1189 0.271075 53.0789C0.278729 52.9516 0.334771 52.832 0.427722 52.7446C0.520674 52.6572 0.643505 52.6087 0.771075 52.6089L51.2211 52.5889C51.4757 52.5889 51.7199 52.4878 51.8999 52.3077C52.0799 52.1277 52.1811 51.8835 52.1811 51.6289L52.2311 1.59892C52.2302 1.43952 52.2887 1.28525 52.3957 1.16541C52.5026 1.04557 52.6504 0.968519 52.8111 0.948914C75.7511 -1.52109 95.8011 7.91892 108.901 26.4489C114.221 33.9823 117.381 42.7323 118.381 52.6989Z" fill="#1DCE64"/>
<path d="M118.381 52.6992C118.368 55.8726 118.388 59.0725 118.441 62.2992C118.494 66.0992 118.261 69.2725 117.741 71.8192C115.061 84.8725 108.628 95.8525 98.4411 104.759C85.5144 116.066 70.2277 120.759 52.5811 118.839L52.6011 53.5692C52.6011 53.3517 52.6864 53.1432 52.8383 52.9894C52.9902 52.8356 53.1962 52.7492 53.4111 52.7492L118.381 52.6992Z" fill="#C2F2D7"/>
<path d="M465.122 0.394334L465.162 38.0843C465.162 38.301 465.078 38.5092 464.926 38.6643C464.775 38.8194 464.569 38.9091 464.352 38.9143L425.592 39.5243C425.392 39.091 425.179 38.901 424.952 38.9543C425.719 33.2877 426.332 29.7343 426.792 28.2943C430.839 15.6677 440.132 6.461 454.672 0.674333C457.639 -0.119001 461.122 -0.212333 465.122 0.394334Z" fill="#F6DDA5"/>
<path d="M454.672 0.674492C440.132 6.46116 430.839 15.6678 426.792 28.2945C426.332 29.7345 425.719 33.2878 424.952 38.9545L387.402 38.9645C387.229 38.9645 387.063 38.8963 386.939 38.7747C386.816 38.6531 386.745 38.4878 386.742 38.3145C386.456 26.5278 386.589 14.7478 387.142 2.97449C387.156 2.74116 387.052 2.66783 386.832 2.75449C386.752 2.78783 386.662 2.83116 386.562 2.88449C386.696 2.33116 386.882 1.80116 387.122 1.29449C387.249 1.02783 387.062 0.797826 386.562 0.604492L454.672 0.674492Z" fill="#FFA732"/>
<path d="M465.122 0.394531C476.576 0.487865 486.222 4.47119 494.062 12.3445C507.122 25.4545 508.862 45.4745 499.572 61.2145C499.486 61.1679 499.409 61.1312 499.342 61.1045C499.206 61.0526 499.091 60.9617 499.012 60.8445C491.942 49.4745 478.682 40.9445 464.802 41.9745L455.422 42.3245L426.942 41.8845C425.702 41.8645 425.166 42.4679 425.332 43.6945C426.146 49.7345 427.966 55.3412 430.792 60.5145C430.951 60.8069 431.04 61.1323 431.052 61.4653C431.064 61.7983 430.999 62.13 430.862 62.4345C428.722 67.1945 427.366 72.3112 426.792 77.7845C426.753 78.1523 426.579 78.4925 426.304 78.7398C426.029 78.9872 425.672 79.1242 425.302 79.1245L414.252 79.0945L387.382 79.3645C387.274 79.3659 387.166 79.3456 387.065 79.305C386.965 79.2644 386.873 79.2042 386.796 79.1279C386.719 79.0516 386.657 78.9608 386.616 78.8607C386.574 78.7605 386.552 78.6531 386.552 78.5445L386.542 42.5645C386.542 42.4293 386.596 42.2995 386.692 42.2039C386.787 42.1083 386.917 42.0545 387.052 42.0545L424.562 42.0345C425.189 42.0345 425.516 41.7212 425.542 41.0945L425.592 39.5245L464.352 38.9145C464.569 38.9093 464.775 38.8196 464.926 38.6645C465.078 38.5094 465.162 38.3012 465.162 38.0845L465.122 0.394531Z" fill="#FFA732"/>
<path d="M455.422 42.3243C450.689 44.2109 446.669 46.3976 443.362 48.8843C439.009 52.1576 435.479 55.9676 432.772 60.3143C432.508 60.737 432.368 61.2261 432.368 61.7262C432.368 62.2264 432.508 62.7176 432.772 63.1443C435.445 67.4643 439.289 70.9943 444.302 73.7343C447.256 75.3409 450.202 77.1076 453.142 79.0343C450.036 79.5409 447.586 79.7643 445.792 79.7043C439.879 79.4976 433.952 79.5143 428.012 79.7543C427.792 79.7609 427.646 79.8676 427.572 80.0743L426.962 81.8743C426.949 81.9076 426.959 81.9243 426.992 81.9243L464.522 82.0743C464.661 82.0743 464.798 82.1017 464.926 82.1551C465.054 82.2085 465.171 82.2868 465.268 82.3853C465.366 82.4839 465.443 82.6008 465.495 82.7294C465.547 82.8579 465.574 82.9955 465.572 83.1343L465.382 119.054L455.502 119.144C456.182 118.991 456.869 118.921 457.562 118.934C457.629 118.941 457.669 118.911 457.682 118.844C457.702 118.751 457.712 118.658 457.712 118.564C457.712 118.478 457.672 118.424 457.592 118.404C454.912 117.814 452.242 117.224 449.782 116.034C436.142 109.461 428.486 98.5309 426.812 83.2443C426.772 82.8843 426.576 82.7043 426.222 82.7043L425.362 82.6943C426.989 82.4009 427.246 81.4376 426.132 79.8043C425.939 79.5309 425.675 79.3876 425.342 79.3743L414.252 79.0943L425.302 79.1243C425.672 79.1239 426.029 78.9869 426.304 78.7396C426.579 78.4922 426.753 78.152 426.792 77.7843C427.366 72.3109 428.722 67.1943 430.862 62.4343C430.999 62.1297 431.064 61.7981 431.052 61.465C431.04 61.132 430.951 60.8066 430.792 60.5143C427.966 55.3409 426.146 49.7343 425.332 43.6943C425.166 42.4676 425.702 41.8643 426.942 41.8843L455.422 42.3243Z" fill="#F6DDA5"/>
<path d="M499.572 61.2149C499.659 61.2549 499.656 61.5316 499.562 62.0449C499.436 61.8916 499.306 61.7916 499.172 61.7449C498.866 61.6316 498.669 61.7316 498.582 62.0449C498.402 62.6649 498.112 63.2283 497.712 63.7349C490.779 72.5483 481.816 77.9216 470.822 79.8549C468.809 80.2083 466.359 80.1649 463.472 79.7249L464.552 79.3849C464.892 79.2783 465.069 79.0449 465.082 78.6849C465.502 66.8516 465.502 54.9783 465.082 43.0649C465.082 42.9583 465.129 42.8849 465.222 42.8449C465.342 42.7849 465.416 42.6949 465.442 42.5749C465.489 42.3149 465.382 42.1649 465.122 42.1249C464.989 42.1049 464.882 42.0549 464.802 41.9749C478.682 40.9449 491.942 49.4749 499.012 60.8449C499.091 60.9621 499.206 61.053 499.342 61.1049C499.409 61.1316 499.486 61.1683 499.572 61.2149Z" fill="#F6DDA5"/>
<path d="M464.802 41.9746C464.882 42.0546 464.989 42.1046 465.122 42.1246C465.382 42.1646 465.489 42.3146 465.442 42.5746C465.415 42.6946 465.342 42.7846 465.222 42.8446C465.129 42.8846 465.082 42.9579 465.082 43.0646C465.502 54.9779 465.502 66.8513 465.082 78.6846C465.069 79.0446 464.892 79.2779 464.552 79.3846L463.472 79.7246L453.142 79.0346C450.202 77.1079 447.255 75.3413 444.302 73.7346C439.289 70.9946 435.445 67.4646 432.772 63.1446C432.508 62.7179 432.368 62.2267 432.368 61.7266C432.368 61.2265 432.508 60.7374 432.772 60.3146C435.479 55.9679 439.009 52.1579 443.362 48.8846C446.669 46.3979 450.689 44.2113 455.422 42.3246L464.802 41.9746Z" fill="#FCEED1"/>
<path d="M499.562 62.0444C504.969 72.2044 505.856 82.5144 502.222 92.9744C497.529 106.481 487.972 115.008 473.552 118.554C471.359 119.094 468.636 119.261 465.382 119.054L465.572 83.1344C465.574 82.9957 465.547 82.858 465.495 82.7295C465.443 82.6009 465.366 82.484 465.268 82.3854C465.171 82.2869 465.054 82.2086 464.926 82.1552C464.798 82.1019 464.661 82.0744 464.522 82.0744L426.992 81.9244C426.959 81.9244 426.949 81.9077 426.962 81.8744L427.572 80.0744C427.646 79.8677 427.792 79.7611 428.012 79.7544C433.952 79.5144 439.879 79.4977 445.792 79.7044C447.586 79.7644 450.036 79.5411 453.142 79.0344L463.472 79.7244C466.359 80.1644 468.809 80.2077 470.822 79.8544C481.816 77.921 490.779 72.5477 497.712 63.7344C498.112 63.2277 498.402 62.6644 498.582 62.0444C498.669 61.731 498.866 61.631 499.172 61.7444C499.306 61.791 499.436 61.891 499.562 62.0444Z" fill="#FFA732"/>
<path d="M425.362 82.6948L426.222 82.7048C426.576 82.7048 426.772 82.8848 426.812 83.2448C428.486 98.5315 436.142 109.462 449.782 116.035C452.242 117.225 454.912 117.815 457.592 118.405C457.672 118.425 457.712 118.478 457.712 118.565C457.712 118.658 457.702 118.752 457.682 118.845C457.669 118.912 457.629 118.941 457.562 118.935C456.869 118.921 456.182 118.992 455.502 119.145L387.482 119.185C387.249 119.185 387.025 119.092 386.86 118.927C386.695 118.762 386.602 118.538 386.602 118.305L386.522 83.2748C386.522 83.1899 386.539 83.1059 386.572 83.0276C386.605 82.9493 386.653 82.8783 386.713 82.8187C386.774 82.7592 386.845 82.7122 386.924 82.6807C387.003 82.6491 387.087 82.6335 387.172 82.6348L425.362 82.6948Z" fill="#FFA732"/>
<path d="M45.527 216.314H36.072L28.167 189.964H39.358L43.109 206.766L45.93 195.234L44.473 189.964H55.199L58.361 206.766L62.546 189.964H69.18L61.244 216.314H51.82L48.782 205.464L45.527 216.314ZM158.717 213.245C159.626 213.245 160.318 212.873 160.794 212.129C161.29 211.365 161.538 210.321 161.538 208.998V199.202C161.538 195.172 160.587 193.157 158.686 193.157C157.797 193.157 157.105 193.519 156.609 194.242C156.113 194.966 155.865 195.989 155.865 197.311V207.386C155.865 211.292 156.815 213.245 158.717 213.245ZM158.469 216.965C153.736 216.965 150.274 215.891 148.084 213.741C145.893 211.592 144.798 208.161 144.798 203.449C144.798 198.779 145.903 195.265 148.115 192.909C150.326 190.533 153.922 189.344 158.903 189.344C163.759 189.344 167.262 190.481 169.412 192.754C171.582 195.007 172.667 198.427 172.667 203.015C172.667 207.769 171.52 211.282 169.226 213.555C166.952 215.829 163.367 216.965 158.469 216.965ZM261.387 216.314H251.374V196.257L249.514 195.11V191.607L256.179 189.964H258.69L259.589 197.342C260.436 192.279 263.154 189.747 267.742 189.747C268.258 189.747 268.796 189.84 269.354 190.026L268.3 201.062C267.866 200.67 266.915 200.473 265.448 200.473C263.34 200.473 261.986 201.031 261.387 202.147V216.314ZM362.235 216.314L357.43 203.635L362.514 189.964H374.139L366.017 202.147L374.325 216.314H362.235ZM346.704 216.314V181.253L344.844 180.137V177.254L354.795 175.704H356.81V216.314H346.704ZM458.957 216.965C457.014 216.965 455.051 216.645 453.067 216.004C451.083 215.343 449.812 214.702 449.254 214.082L450.06 209.091C450.763 209.773 451.93 210.362 453.563 210.858C455.216 211.354 456.901 211.602 458.616 211.602C459.856 211.602 460.703 211.447 461.158 211.137C461.633 210.827 461.871 210.393 461.871 209.835C461.871 209.298 461.458 208.823 460.631 208.409C459.804 207.975 458.461 207.479 456.601 206.921C451.786 205.475 449.378 202.478 449.378 197.931C449.378 196.071 449.915 194.48 450.99 193.157C452.065 191.814 453.439 190.843 455.113 190.243C456.787 189.644 458.657 189.344 460.724 189.344C464.258 189.344 466.862 189.995 468.536 191.297C468.908 191.649 469.094 191.824 469.094 191.824L467.73 196.257C466.366 194.914 464.485 194.242 462.088 194.242C460.125 194.242 459.143 194.821 459.143 195.978C459.143 196.309 459.215 196.588 459.36 196.815C459.505 197.022 459.742 197.208 460.073 197.373C460.424 197.518 460.765 197.642 461.096 197.745C461.427 197.828 461.892 197.952 462.491 198.117C463.09 198.262 463.607 198.396 464.041 198.52C466.459 199.326 468.216 200.463 469.311 201.93C470.406 203.398 470.954 205.227 470.954 207.417C470.954 213.783 466.955 216.965 458.957 216.965Z" fill="white"/>
</svg>
