<svg width="1208" height="285" viewBox="0 0 1208 285" fill="none" xmlns="http://www.w3.org/2000/svg">
<path d="M665.63 0.918945C666.187 1.22151 666.911 1.31706 667.803 1.20559C668.615 1.11004 669.109 1.46037 669.284 2.25658C669.396 2.75023 669.324 3.23593 669.069 3.71366C668.798 4.23916 668.679 4.80447 668.711 5.40959C669.905 25.0602 670.24 47.1711 669.714 71.7423C669.475 82.7062 670.646 95.5571 670.096 107.644C670.064 108.44 670.256 109.18 670.67 109.865C672.676 113.018 673.87 115.55 676.952 117.867C681.745 121.482 686.578 124.444 691.451 126.753C733.539 146.658 775.268 147.351 816.64 128.831C824.22 125.439 831.131 121.235 837.373 116.219C840.749 113.496 842.445 110.438 842.461 107.046C842.604 74.8794 842.843 42.6168 843.178 10.2586C843.194 8.8413 842.994 7.32052 842.58 5.69624C842.198 4.18343 841.88 2.6547 841.625 1.11004L897.949 1.44445C899.144 1.90626 899.59 2.45565 899.287 3.09262C898.714 4.30287 898.268 5.56884 897.949 6.89056C895.8 41.096 883.379 71.0337 860.686 96.7037C855.925 102.086 850.638 106.752 844.826 110.701C844.268 111.076 843.81 111.582 843.494 112.173C843.177 112.765 843.011 113.424 843.01 114.093L843.058 283.305C843.058 283.487 843.023 283.667 842.955 283.835C842.886 284.003 842.786 284.156 842.659 284.284C842.533 284.413 842.383 284.515 842.218 284.585C842.053 284.654 841.875 284.69 841.697 284.69L671.768 284.738C671.243 284.738 670.738 284.529 670.366 284.157C669.995 283.785 669.786 283.281 669.786 282.755C669.738 223.023 669.754 167.527 669.834 116.267C669.834 113.472 668.902 112.182 666.896 110.414C633.247 81.4163 615.986 45.6583 615.11 3.14039C615.103 2.87604 615.15 2.61308 615.247 2.367C615.343 2.12092 615.488 1.8967 615.673 1.70751C615.858 1.51832 616.079 1.36799 616.322 1.26538C616.566 1.16277 616.828 1.10996 617.092 1.11004L665.63 0.918945Z" fill="#EF4040"/>
<path d="M666.588 23.8867L841.801 24.0482C842.055 25.3538 842.372 26.646 842.753 27.9246C843.165 29.2975 843.363 30.5829 843.347 31.7809C843.014 59.131 842.776 86.4005 842.634 113.589C842.618 116.456 840.929 119.04 837.568 121.342C831.354 125.582 824.473 129.135 816.927 132.002C775.74 147.656 734.196 147.07 692.295 130.246C687.443 128.294 682.632 125.79 677.86 122.735C674.792 120.777 673.603 118.637 671.606 115.971C671.194 115.393 671.003 114.767 671.035 114.094C671.582 103.878 670.417 93.0159 670.655 83.7489C671.178 62.9805 670.845 44.2917 669.656 27.6824C669.624 27.1709 669.743 26.6931 670.013 26.2489C670.266 25.8451 670.337 25.4346 670.227 25.0173C670.052 24.3443 669.561 24.0482 668.752 24.129C667.864 24.2232 667.143 24.1425 666.588 23.8867Z" fill="#E6B1B1"/>
<path d="M591.223 142.875C591.223 180.569 576.249 216.719 549.595 243.373C522.942 270.026 486.792 285 449.098 285C411.404 285 375.255 270.026 348.601 243.373C321.948 216.719 306.974 180.569 306.974 142.875C306.974 105.182 321.948 69.0317 348.601 42.3782C375.255 15.7247 411.404 0.750977 449.098 0.750977C486.792 0.750977 522.942 15.7247 549.595 42.3782C576.249 69.0317 591.223 105.182 591.223 142.875ZM505.876 142.947C505.876 127.895 499.897 113.459 489.253 102.816C478.61 92.1723 464.174 86.1929 449.122 86.1929C434.07 86.1929 419.634 92.1723 408.991 102.816C398.347 113.459 392.368 127.895 392.368 142.947C392.368 157.999 398.347 172.435 408.991 183.078C419.634 193.722 434.07 199.701 449.122 199.701C464.174 199.701 478.61 193.722 489.253 183.078C499.897 172.435 505.876 157.999 505.876 142.947Z" fill="#C21292"/>
<path d="M449.122 199.7C480.467 199.7 505.876 174.29 505.876 142.946C505.876 111.601 480.467 86.1914 449.122 86.1914C417.778 86.1914 392.368 111.601 392.368 142.946C392.368 174.29 417.778 199.7 449.122 199.7Z" fill="#EAB7DC"/>
<path d="M282.771 125.88L127.58 125.999C127.067 125.999 126.575 126.205 126.212 126.573C125.849 126.94 125.646 127.438 125.646 127.958L125.598 283.865C120.486 283.642 115.056 282.806 109.307 281.357C85.6119 275.433 62.7526 263.872 45.3632 247.199C11.5081 214.793 -3.39703 174.656 0.647747 126.787C0.66603 126.483 0.799893 126.197 1.02192 125.989C1.24395 125.78 1.53735 125.664 1.84207 125.665L122.349 125.617C122.957 125.617 123.541 125.375 123.971 124.945C124.401 124.515 124.642 123.932 124.642 123.324L124.762 3.81976C124.76 3.43903 124.9 3.07051 125.155 2.78426C125.41 2.49801 125.764 2.31397 126.147 2.26714C180.943 -3.63282 228.835 18.916 260.126 63.1776C272.834 81.1721 280.382 102.073 282.771 125.88Z" fill="#1DCE64"/>
<path d="M282.771 125.88C282.739 133.46 282.787 141.103 282.914 148.811C283.041 157.888 282.484 165.468 281.242 171.551C274.84 202.731 259.473 228.958 235.141 250.233C204.264 277.24 167.749 288.451 125.598 283.865L125.646 127.958C125.646 127.439 125.849 126.94 126.212 126.573C126.575 126.206 127.067 125.999 127.58 125.999L282.771 125.88Z" fill="#C2F2D7"/>
<path d="M1111.01 0.941924L1111.11 90.97C1111.11 91.4876 1110.91 91.9848 1110.54 92.3553C1110.18 92.7257 1109.69 92.9401 1109.17 92.9526L1016.59 94.4097C1016.11 93.3746 1015.6 92.9207 1015.06 93.0481C1016.89 79.5124 1018.36 71.0248 1019.46 67.5851C1029.12 37.4245 1051.32 15.433 1086.05 1.61074C1093.14 -0.284251 1101.46 -0.507188 1111.01 0.941924Z" fill="#F6DDA5"/>
<path d="M1086.05 1.61154C1051.32 15.4338 1029.12 37.4253 1019.46 67.5859C1018.36 71.0256 1016.89 79.5133 1015.06 93.0489L925.367 93.0728C924.953 93.0728 924.556 92.91 924.261 92.6195C923.966 92.329 923.797 91.9341 923.791 91.5202C923.106 63.366 923.424 35.2278 924.746 7.10543C924.778 6.54808 924.531 6.37291 924.006 6.57993C923.814 6.65955 923.599 6.76305 923.361 6.89045C923.679 5.56873 924.125 4.30275 924.698 3.09251C925.001 2.45554 924.555 1.90614 923.361 1.44434L1086.05 1.61154Z" fill="#FFA732"/>
<path d="M1111.01 0.942383C1138.37 1.16532 1161.41 10.6801 1180.14 29.4867C1211.34 60.8018 1215.49 108.623 1193.3 146.22C1193.09 146.108 1192.91 146.021 1192.75 145.957C1192.43 145.833 1192.15 145.616 1191.96 145.336C1175.08 118.177 1143.4 97.802 1110.25 100.262L1087.84 101.098L1019.81 100.047C1016.85 99.9996 1015.57 101.441 1015.97 104.371C1017.91 118.798 1022.26 132.191 1029.01 144.548C1029.39 145.246 1029.6 146.023 1029.63 146.819C1029.66 147.614 1029.5 148.407 1029.18 149.134C1024.07 160.504 1020.83 172.726 1019.46 185.8C1019.36 186.678 1018.95 187.491 1018.29 188.082C1017.63 188.672 1016.78 189 1015.9 189L989.502 188.929L925.319 189.574C925.06 189.577 924.803 189.529 924.562 189.432C924.322 189.335 924.103 189.191 923.919 189.009C923.734 188.826 923.588 188.609 923.488 188.37C923.388 188.131 923.337 187.874 923.337 187.615L923.313 101.672C923.313 101.348 923.441 101.039 923.67 100.81C923.898 100.582 924.208 100.453 924.531 100.453L1014.13 100.406C1015.63 100.406 1016.41 99.6572 1016.47 98.1603L1016.59 94.4101L1109.17 92.953C1109.69 92.9406 1110.18 92.7262 1110.54 92.3557C1110.91 91.9853 1111.11 91.4881 1111.11 90.9705L1111.01 0.942383Z" fill="#FFA732"/>
<path d="M1087.84 101.098C1076.54 105.605 1066.93 110.828 1059.04 116.768C1048.64 124.586 1040.2 133.687 1033.74 144.07C1033.11 145.08 1032.77 146.248 1032.77 147.443C1032.77 148.637 1033.11 149.81 1033.74 150.83C1040.13 161.149 1049.31 169.581 1061.28 176.125C1068.34 179.963 1075.37 184.183 1082.4 188.785C1074.98 189.995 1069.12 190.529 1064.84 190.386C1050.71 189.892 1036.56 189.932 1022.37 190.505C1021.84 190.521 1021.49 190.776 1021.32 191.269L1019.86 195.569C1019.83 195.649 1019.85 195.688 1019.93 195.688L1109.58 196.047C1109.91 196.047 1110.24 196.112 1110.54 196.24C1110.85 196.367 1111.13 196.554 1111.36 196.79C1111.59 197.025 1111.78 197.304 1111.9 197.612C1112.03 197.919 1112.09 198.247 1112.09 198.579L1111.63 284.379L1088.03 284.594C1089.66 284.228 1091.3 284.06 1092.95 284.092C1093.11 284.108 1093.21 284.036 1093.24 283.877C1093.29 283.654 1093.31 283.431 1093.31 283.208C1093.31 283.001 1093.22 282.874 1093.03 282.826C1086.62 281.417 1080.25 280.008 1074.37 277.165C1041.79 261.464 1023.5 235.356 1019.5 198.841C1019.41 197.982 1018.94 197.552 1018.09 197.552L1016.04 197.528C1019.93 196.827 1020.54 194.526 1017.88 190.625C1017.42 189.972 1016.79 189.629 1015.99 189.597L989.502 188.929L1015.9 189C1016.78 188.999 1017.63 188.672 1018.29 188.081C1018.95 187.491 1019.36 186.678 1019.46 185.799C1020.83 172.726 1024.07 160.504 1029.18 149.134C1029.5 148.406 1029.66 147.614 1029.63 146.819C1029.6 146.023 1029.39 145.246 1029.01 144.547C1022.26 132.19 1017.91 118.798 1015.97 104.37C1015.57 101.44 1016.85 99.9993 1019.81 100.047L1087.84 101.098Z" fill="#F6DDA5"/>
<path d="M1193.3 146.22C1193.51 146.316 1193.5 146.977 1193.28 148.203C1192.97 147.837 1192.66 147.598 1192.35 147.486C1191.61 147.216 1191.14 147.455 1190.94 148.203C1190.51 149.684 1189.81 151.03 1188.86 152.24C1172.3 173.292 1150.89 186.127 1124.63 190.745C1119.82 191.589 1113.97 191.485 1107.07 190.434L1109.65 189.622C1110.46 189.367 1110.89 188.81 1110.92 187.95C1111.92 159.684 1111.92 131.323 1110.92 102.867C1110.92 102.612 1111.03 102.437 1111.25 102.341C1111.54 102.198 1111.71 101.983 1111.78 101.696C1111.89 101.075 1111.63 100.717 1111.01 100.621C1110.69 100.573 1110.44 100.454 1110.25 100.263C1143.4 97.8026 1175.08 118.178 1191.96 145.337C1192.15 145.617 1192.43 145.834 1192.75 145.958C1192.91 146.021 1193.09 146.109 1193.3 146.22Z" fill="#F6DDA5"/>
<path d="M1110.25 100.263C1110.44 100.454 1110.69 100.573 1111.01 100.621C1111.63 100.717 1111.89 101.075 1111.78 101.696C1111.71 101.982 1111.54 102.197 1111.25 102.341C1111.03 102.436 1110.92 102.612 1110.92 102.866C1111.92 131.323 1111.92 159.684 1110.92 187.95C1110.88 188.81 1110.46 189.367 1109.65 189.622L1107.07 190.434L1082.4 188.786C1075.37 184.184 1068.34 179.964 1061.28 176.126C1049.31 169.581 1040.13 161.149 1033.74 150.83C1033.11 149.811 1032.77 148.638 1032.77 147.443C1032.77 146.249 1033.11 145.08 1033.74 144.07C1040.2 133.688 1048.64 124.587 1059.04 116.768C1066.93 110.828 1076.54 105.605 1087.84 101.099L1110.25 100.263Z" fill="#FCEED1"/>
<path d="M1193.28 148.202C1206.19 172.471 1208.31 197.098 1199.63 222.083C1188.42 254.346 1165.59 274.713 1131.15 283.185C1125.91 284.475 1119.4 284.873 1111.63 284.379L1112.09 198.579C1112.09 198.248 1112.03 197.919 1111.9 197.612C1111.78 197.305 1111.59 197.025 1111.36 196.79C1111.13 196.555 1110.85 196.368 1110.54 196.24C1110.24 196.113 1109.91 196.047 1109.58 196.047L1019.93 195.689C1019.85 195.689 1019.83 195.649 1019.86 195.569L1021.32 191.27C1021.49 190.776 1021.84 190.521 1022.37 190.505C1036.56 189.932 1050.72 189.892 1064.84 190.386C1069.12 190.529 1074.98 189.996 1082.4 188.786L1107.07 190.434C1113.97 191.485 1119.82 191.588 1124.63 190.744C1150.89 186.126 1172.3 173.291 1188.86 152.239C1189.81 151.029 1190.51 149.683 1190.94 148.202C1191.14 147.454 1191.61 147.215 1192.35 147.486C1192.66 147.597 1192.98 147.836 1193.28 148.202Z" fill="#FFA732"/>
<path d="M1016.04 197.528L1018.09 197.552C1018.94 197.552 1019.41 197.982 1019.5 198.842C1023.5 235.356 1041.79 261.464 1074.37 277.166C1080.25 280.008 1086.62 281.417 1093.03 282.827C1093.22 282.875 1093.31 283.002 1093.31 283.209C1093.31 283.432 1093.29 283.655 1093.24 283.878C1093.21 284.037 1093.11 284.109 1092.95 284.093C1091.3 284.061 1089.66 284.228 1088.03 284.594L925.558 284.69C925 284.69 924.466 284.468 924.072 284.074C923.677 283.68 923.456 283.145 923.456 282.588L923.265 198.914C923.265 198.711 923.305 198.51 923.383 198.323C923.462 198.136 923.577 197.966 923.721 197.824C923.866 197.682 924.037 197.57 924.225 197.494C924.413 197.419 924.615 197.382 924.817 197.385L1016.04 197.528Z" fill="#FFA732"/>
</svg>
